<svg id="Capa_1" enable-background="new 0 0 497.834 497.834" height="512" viewBox="0 0 497.834 497.834" width="512" xmlns="http://www.w3.org/2000/svg"><g><g><path d="m188.916 425.318c-19.149-52.091-1.057-96.914 62.649-129.455s84.584-72.809 68.133-125.346c-14.721-47.009-61.047-75.37-108.269-69.033-93.295 16.83-164.07 98.439-164.07 196.583 0 110.328 89.439 199.767 199.767 199.767 24.215 0 47.423-4.311 68.901-12.203-51.594 17.832-108.193-8.848-127.111-60.313z" fill="#9781dd"/><path d="m446.892 298.067c0-110.328-89.439-199.767-199.767-199.767-12.185 0-24.114 1.094-35.697 3.184 47.222-6.337 93.548 22.024 108.269 69.033 16.452 52.537-4.427 92.805-68.133 125.346s-81.797 77.364-62.649 129.455c18.919 51.465 75.517 78.145 127.11 60.313 76.379-28.067 130.867-101.451 130.867-187.564z" fill="#e7effa"/><path d="m247.125 98.3c-5.102 0-10.159.193-15.165.569 87.733 7.093 156.723 80.533 156.723 170.093 0 94.254-76.408 170.663-170.663 170.663-89.56 0-162.999-68.99-170.093-156.723-.376 5.006-.57 10.063-.57 15.165 0 110.328 89.439 199.767 199.767 199.767s199.767-89.439 199.767-199.767-89.438-199.767-199.766-199.767z" fill="#d1b5f2"/><path d="m247.125 497.834c24.215 0 47.423-4.311 68.901-12.203-47.159 16.299-98.493-4.595-121.418-47.609-78.634-10.79-140.19-75.141-146.676-155.069-.374 4.99-.574 10.029-.574 15.115 0 110.327 89.439 199.766 199.767 199.766z" fill="#8962de"/><g><path d="m116.039 221.013c-1.904 0-3.829-.543-5.533-1.677-4.598-3.061-5.843-9.269-2.781-13.866 2.231-3.352 4.611-6.662 7.073-9.839 3.384-4.366 9.668-5.16 14.03-1.778 4.365 3.383 5.161 9.665 1.778 14.03-2.17 2.799-4.268 5.717-6.235 8.672-1.926 2.892-5.1 4.458-8.332 4.458z" fill="#fff"/></g><g><path d="m90.213 296.686c-.243 0-.487-.009-.734-.027-5.508-.399-9.649-5.189-9.25-10.697.945-13.031 3.413-25.949 7.334-38.394 1.66-5.268 7.278-8.191 12.543-6.532 5.268 1.66 8.192 7.275 6.533 12.543-3.455 10.965-5.63 22.347-6.463 33.831-.382 5.261-4.77 9.276-9.963 9.276z" fill="#fff"/></g><circle cx="216.375" cy="201.762" fill="#e7effa" r="37.522"/><circle cx="282.701" cy="393.278" fill="#9781dd" r="37.522"/><path d="m317.318 407.772c-12.949 9.28-27.252 16.786-42.553 22.179 2.559.551 5.212.849 7.936.849 15.584 0 28.947-9.503 34.617-23.028z" fill="#8962de"/></g><path d="m50.533 66.033 8.41 23.649c.36 1.012 1.073 1.815 1.972 2.22l21.011 9.466c2.968 1.337 2.968 6.067 0 7.404l-21.011 9.466c-.9.405-1.612 1.208-1.972 2.22l-8.41 23.648c-1.188 3.341-5.39 3.341-6.578 0l-8.41-23.648c-.36-1.013-1.073-1.815-1.973-2.22l-21.011-9.466c-2.968-1.337-2.968-6.067 0-7.404l21.011-9.466c.9-.405 1.613-1.208 1.973-2.22l8.41-23.649c1.188-3.341 5.39-3.341 6.578 0z" fill="#c2b2eb"/><path d="m400.03 1.859 6.239 17.542c.267.751.796 1.346 1.463 1.647l15.585 7.022c2.202.992 2.202 4.5 0 5.492l-15.585 7.022c-.667.301-1.196.896-1.463 1.647l-6.239 17.542c-.881 2.478-3.998 2.478-4.88 0l-6.239-17.542c-.267-.751-.796-1.346-1.463-1.647l-15.585-7.022c-2.202-.992-2.202-4.5 0-5.492l15.585-7.022c.667-.301 1.196-.896 1.463-1.647l6.239-17.542c.882-2.479 3.999-2.479 4.88 0z" fill="#c2b2eb"/><g fill="#9781dd"><circle cx="469.134" cy="129.898" r="18.364"/><ellipse cx="127.905" cy="28.593" rx="7.922" ry="7.922" transform="matrix(.993 -.122 .122 .993 -2.535 15.842)"/></g></g></svg>