<?xml version="1.0" encoding="iso-8859-1"?>
<!-- Generator: Adobe Illustrator 19.0.0, SVG Export Plug-In . SVG Version: 6.00 Build 0)  -->
<svg version="1.1" id="Capa_1" xmlns="http://www.w3.org/2000/svg" xmlns:xlink="http://www.w3.org/1999/xlink" x="0px" y="0px"
	 viewBox="0 0 512 512" style="enable-background:new 0 0 512 512;" xml:space="preserve">
<path style="fill:#FD3C65;" d="M394.6,434.2l-12.001,76c-2.098,1.199-4.199,1.8-6.599,1.8H136c-2.401,0-4.501-0.601-6.599-1.8
	l-4.2-90.7l70.8-43.2c17.999,9,38.401,14.7,60,14.7s42.001-5.7,60-14.7L394.6,434.2z"/>
<path style="fill:#FD003A;" d="M316,376.3l78.6,57.9l-12.001,76c-2.098,1.199-4.199,1.8-6.599,1.8H256V391
	C277.599,391,298.001,385.3,316,376.3z"/>
<path style="fill:#FD3C65;" d="M135.729,195.863L88.53,121l-86.792,8.368C0.703,131.432,0,133.643,0,136v240
	c0,2.357,0.703,4.568,1.738,6.632l76.91,7.31l57.079-73.806C126.612,297.955,121,277.724,121,256S126.612,214.043,135.729,195.863z"
	/>
<path style="fill:#FD003A;" d="M510.262,129.37c0,0-91.027-10.135-93.498-11.193s-40.494,77.688-40.494,77.688
	C385.388,214.045,391,234.276,391,256s-5.612,41.957-14.729,60.137l53.553,74.156l80.438-7.661c1.035-2.064,1.738-4.276,1.738-6.632
	V136C512,133.643,511.297,131.433,510.262,129.37z"/>
<path style="fill:#FD3C65;" d="M394.9,100.901L316,135.7c-17.999-9-38.401-14.7-60-14.7s-42.001,5.7-60,14.7l-68.699-49.2
	l2.1-84.699C131.499,0.601,133.599,0,136,0h240c2.401,0,4.501,0.601,6.599,1.8L394.9,100.901z"/>
<path style="fill:#FD003A;" d="M316,135.7c-17.999-9-38.401-14.7-60-14.7V0h120c2.401,0,4.501,0.601,6.599,1.8l12.301,99.101
	L316,135.7z"/>
<path style="fill:#FE9923;" d="M195.865,135.727L129.368,1.738c-1.426,0.714-2.823,1.507-3.973,2.657l-121,121
	c-1.15,1.15-1.943,2.547-2.657,3.973l133.991,66.495C148.784,169.825,169.827,148.783,195.865,135.727z"/>
<g>
	<path style="fill:#FE8821;" d="M376.271,195.865l133.991-66.495c-0.714-1.426-1.507-2.825-2.657-3.975l-121-121
		c-1.15-1.15-2.547-1.943-3.973-2.657l-66.497,133.99C342.173,148.783,363.216,169.827,376.271,195.865z"/>
	<path style="fill:#FE8821;" d="M316.137,376.271l66.495,133.991c1.426-0.714,2.823-1.507,3.973-2.657l121-121
		c1.15-1.15,1.943-2.547,2.657-3.973l-133.991-66.495C363.216,342.175,342.175,363.216,316.137,376.271z"/>
</g>
<path style="fill:#FE9923;" d="M135.727,316.135L1.738,382.632c0.714,1.426,1.507,2.823,2.657,3.973l121,121
	c1.15,1.15,2.547,1.943,3.973,2.657l66.497-133.99C169.827,363.216,148.784,342.173,135.727,316.135z"/>
<path style="fill:#E5E5E5;" d="M353.5,158.5c0,53.699-43.801,97.5-97.5,97.5s-97.5,43.801-97.5,97.5c0,50.4,37.5,91.8,87.299,96.899
	C142.301,445.3,61,360.099,61,256c0-107.401,87.599-195,195-195c3.3,0,6.899,0.3,10.201,0.601C316,66.7,353.5,108.1,353.5,158.5z"/>
<path style="fill:#57555C;" d="M451,256c0,107.401-87.599,195-195,195c-3.3,0-6.899-0.3-10.201-0.601
	C196,445.3,158.5,403.9,158.5,353.5c0-53.699,43.801-97.5,97.5-97.5s97.5-43.801,97.5-97.5c0-50.4-37.5-91.8-87.299-96.899
	C369.699,66.7,451,151.901,451,256z"/>
<path style="fill:#3C3A41;" d="M451,256c0,107.401-87.599,195-195,195V256c53.699,0,97.5-43.801,97.5-97.5
	c0-50.4-37.5-91.8-87.299-96.899C369.699,66.7,451,151.901,451,256z"/>
<path style="fill:#D9D9D9;" d="M353.5,158.5c0,53.699-43.801,97.5-97.5,97.5V61c3.3,0,6.899,0.3,10.201,0.601
	C316,66.7,353.5,108.1,353.5,158.5z"/>
<path style="fill:#E5E5E5;" d="M256.3,301c-0.3,0-0.3,0-0.601,0c-24.6,0-44.7,20.4-44.7,45.3c0,24.6,20.4,44.7,45.3,44.7
	c24.6,0,44.7-20.4,44.7-45.3C301,321.4,280.901,301.3,256.3,301z"/>
<path style="fill:#57555C;" d="M256.3,121H256c-24.901,0-45,20.099-45,45s20.099,45,45,45h0.3c24.901-0.3,44.7-20.099,44.7-45
	S281.201,121.3,256.3,121z"/>
<path style="fill:#3C3A41;" d="M256.3,211v-90c24.901,0.3,44.7,20.099,44.7,45S281.201,210.7,256.3,211z"/>
<path style="fill:#D9D9D9;" d="M301,345.7c0,24.901-20.099,45.3-44.7,45.3v-90C280.901,301.3,301,321.4,301,345.7z"/>
<g>
</g>
<g>
</g>
<g>
</g>
<g>
</g>
<g>
</g>
<g>
</g>
<g>
</g>
<g>
</g>
<g>
</g>
<g>
</g>
<g>
</g>
<g>
</g>
<g>
</g>
<g>
</g>
<g>
</g>
</svg>
